%
T1C.022F197S55
X01321Y01711
X01752Y01436
X01762Y01605
X01806Y01277
X02025Y01675
X02187Y0173
X02275Y01741
X02492Y01581
X0258Y01534
X02593Y01338
X02803Y01612
X02847Y01547
X02942Y01295
X029435Y015839
X03Y01725
X0305Y01456
X03171Y01295
X03403Y01445
X03472Y01295
X03647Y01445
X03746Y01735
X03752Y01295
X03837Y01625
X04073Y01295
X0416Y01445
X04225Y016
X0433Y01295
X045343Y017075
X04813Y01295
X04814Y01488
X05062Y01633
X05115Y01842
X04411Y022
X0429Y02169
X04125Y0195
X04073Y02152
X03975Y02175
X03825Y02
X03766Y02152
X03671Y01987
X036683Y021563
X03575Y01975
X02975Y02254
X02972Y02102
X0285Y02081
X02759Y02257
X02624Y02027
X02593Y02156
X02502Y02082
X02499Y02247
X02401Y02112
X02367Y02007
X02314Y02062
X02262Y02173
X02181Y02146
X02083Y02173
X01939Y02164
X01843Y02095
X01826Y02183
X017122Y017806
X01664Y02162
X0156Y01798
X01317Y01997
X01303Y02347
X01691Y02342
X01874Y02406
X0189Y0264
X019916Y025046
X02025Y026
X02191Y02507
X024Y02625
X02475Y024
X026Y02298
X02637Y02402
X02641Y0276
X02712Y02348
X02833Y02605
X03208Y02598
X03249Y02382
X03417Y02587
X034437Y022828
X03452Y02727
X03499Y02467
X03921Y02669
X03992Y02328
X04026Y02632
X04097Y02722
X041656Y023779
X041659Y026067
X05083Y02397
X05094Y02581
X05094Y02945
X04685Y02845
X04641Y02953
X04546Y02777
X04458Y029306
X043Y03025
X04Y02817
X03893Y02936
X03881Y02804
X03702Y02956
X03644Y02855
X03249Y02818
X02999Y0294
X02692Y02824
X02637Y0299
X0255Y03025
X02455Y02815
X02275Y02825
X02046Y02815
X01965Y02892
X01685Y02852
X01391Y0295
X01306Y02803
X01303Y03199
X013515Y034325
X01563Y03166
X01593Y03291
X017338Y032784
X01766Y03413
X02002Y03454
X021Y0305
X02127Y03119
X02275Y03181
X0233Y03065
X023732Y034968
X02431Y03129
X0261Y03109
X0285Y03109
X02985Y03098
X039Y0345
X03928Y03516
X04125Y03325
X043246Y034803
X04949Y03065
X05037Y03436
X04927Y03595
X04418Y03687
X04206Y0368
X03987Y03684
X03789Y03702
X035455Y03703
X02935Y0371
X0285Y03538
X02759Y03683
X02617Y03558
X02617Y0374
X02017Y03684
X01924Y03643
X017384Y03777
X01731Y03648
X0159Y03686
X0142Y03599
X01627Y03869
X02Y03925
X021714Y038435
X02688Y03895
X02965Y03895
X03249Y03895
X03479Y03895
X03692Y03895
X03908Y03895
X04134Y03895
X04442Y03895
X04682Y03895
T2C.02362F197S55
X030405Y0245
X030405Y026
X030405Y0275
X030996Y025
X030996Y0265
X030996Y027
X030996Y0255
T3C.03228F197S55
X033131Y031592
X034131Y034584
X033131Y036592
T4C.035F197S55
X021Y0135
X021Y0145
X022Y0135
X022Y0145
X023Y0135
X023Y0145
X024Y0135
X024Y0145
X028Y0135
X028Y0145
X0354Y016115
X0364Y016115
X0495Y025
X0495Y024
X0485Y025
X0485Y024
X04631Y022377
X04531Y022377
X043861Y018522
X043861Y020522
X043861Y019522
X0354Y031535
X0364Y031535
X044276Y032196
X044276Y031196
X0485Y028
X0485Y027
X0485Y026
X0495Y026
X0495Y028
X0495Y027
X04652Y034454
X04552Y034454
X044276Y033196
X024478Y0375
X024478Y0365
X024478Y0385
X023478Y0365
X023478Y0375
X023478Y0385
T5C.05079F107S55
X0155Y026
T6C.05315F107S55
X030996Y023531
X03139Y028583
T7C.05709F107S55
X0145Y025
X0145Y027
X0165Y025
X0165Y027
X048Y02
X048Y032
T8C.08268F074S55
X048Y018031
X048Y021969
X050283Y02
X050283Y032
X048Y030031
X048Y033969
T9C.12598F035S794
X014Y014
X05Y014
X05Y038
X014Y038
M30
