*
*
G04 PADS 9.2 Build Number: 414666 generated Gerber (RS-274-X) file*
G04 PC Version=2.1*
*
%IN "SDRX.pcb"*%
*
%MOIN*%
*
%FSLAX35Y35*%
*
*
*
*
G04 PC Standard Apertures*
*
*
G04 Thermal Relief Aperture macro.*
%AMTER*
1,1,$1,0,0*
1,0,$1-$2,0,0*
21,0,$3,$4,0,0,45*
21,0,$3,$4,0,0,135*
%
*
*
G04 Annular Aperture macro.*
%AMANN*
1,1,$1,0,0*
1,0,$2,0,0*
%
*
*
G04 Odd Aperture macro.*
%AMODD*
1,1,$1,0,0*
1,0,$1-0.005,0,0*
%
*
*
G04 PC Custom Aperture Macros*
*
*
*
*
*
*
G04 PC Aperture Table*
*
%ADD024C,0.001*%
%ADD083R,0.055X0.072*%
%ADD084R,0.116X0.101*%
%ADD085R,0.101X0.116*%
%ADD086R,0.072X0.055*%
%ADD087R,0.081X0.081*%
%ADD088C,0.1538*%
%ADD089C,0.17348*%
%ADD090C,0.11472*%
%ADD091O,0.06315X0.05528*%
%ADD092C,0.11079*%
%ADD093R,0.123X0.072*%
%ADD094R,0.083X0.146*%
%ADD095C,0.25213*%
%ADD096C,0.21*%
%ADD097R,0.055X0.067*%
%ADD098R,0.067X0.055*%
%ADD099O,0.041X0.086*%
%ADD100R,0.076X0.088*%
%ADD101R,0.163X0.086*%
%ADD102O,0.086X0.041*%
%ADD103C,0.01157*%
%ADD104R,0.09858X0.09465*%
%ADD105R,0.065X0.155*%
%ADD106R,0.069X0.086*%
%ADD107R,0.086X0.069*%
%ADD108C,0.076*%
*
*
*
*
G04 PC Circuitry*
G04 Layer Name SDRX.pcb - circuitry*
%LPD*%
*
*
G04 PC Custom Flashes*
G04 Layer Name SDRX.pcb - flashes*
%LPD*%
*
*
G04 PC Circuitry*
G04 Layer Name SDRX.pcb - circuitry*
%LPD*%
*
G54D24*
G54D83*
G01X308155Y172021D03*
X315755D03*
X349981Y197374D03*
X342381D03*
X300748Y322638D03*
X308348D03*
X431249Y309753D03*
X423649D03*
X186800Y279342D03*
X179200D03*
X247479Y261712D03*
X255079D03*
G54D84*
X344300Y228280D03*
Y208280D03*
X346216Y302682D03*
Y282682D03*
X354545Y370303D03*
Y350303D03*
X217142Y364345D03*
Y384345D03*
X463351Y309686D03*
Y329686D03*
X461600Y185763D03*
Y205763D03*
G54D85*
X425802Y293065D03*
X445802D03*
X315500Y158393D03*
X295500D03*
X432461Y348033D03*
X412461D03*
X191222Y178056D03*
X171222D03*
X193384Y327841D03*
X173384D03*
X179161Y250462D03*
X199161D03*
X436589Y260672D03*
X416589D03*
X416559Y237790D03*
X436559D03*
X155148Y343248D03*
X135148D03*
X433434Y170753D03*
X453434D03*
X366834Y215634D03*
X386834D03*
G54D86*
X400152Y346992D03*
Y339392D03*
X342162Y364727D03*
Y357127D03*
X202316Y174931D03*
Y182531D03*
X205508Y337490D03*
Y329890D03*
X200200Y216900D03*
Y209300D03*
X421884Y174553D03*
Y166953D03*
X234817Y288654D03*
Y296254D03*
X253794Y296487D03*
Y288887D03*
X200793Y384651D03*
Y377051D03*
X398172Y210808D03*
Y203208D03*
G54D87*
X354000Y161145D03*
X364000D03*
X244780Y365000D03*
X234780D03*
X244780Y375000D03*
X234780D03*
X244780Y385000D03*
X234780D03*
X438613Y185217D03*
Y195217D03*
Y205217D03*
X354000Y315349D03*
X364000D03*
X442758Y311964D03*
Y321964D03*
Y331964D03*
X485000Y280000D03*
X495000D03*
X485000Y270000D03*
X495000D03*
X485000Y260000D03*
X495000D03*
X485000Y250000D03*
X495000D03*
X485000Y240000D03*
X495000D03*
X453100Y223769D03*
X463100D03*
X455200Y344540D03*
X465200D03*
X280000Y135000D03*
Y145000D03*
X210000Y135000D03*
Y145000D03*
X220000Y135000D03*
Y145000D03*
X230000Y135000D03*
Y145000D03*
X240000Y135000D03*
Y145000D03*
G54D88*
X480000Y320000D03*
Y200000D03*
G54D89*
Y339685D03*
X502835Y320000D03*
X480000Y300315D03*
Y219685D03*
X502835Y200000D03*
X480000Y180315D03*
G54D90*
X155000Y260000D03*
X145000Y250000D03*
X165000D03*
Y270000D03*
X145000D03*
G54D91*
X304053Y245000D03*
X309959Y250000D03*
Y255000D03*
X304053Y260000D03*
X309959Y265000D03*
Y270000D03*
X304053Y275000D03*
G54D92*
X313896Y285827D03*
X309959Y235315D03*
G54D93*
X190469Y190700D03*
Y200700D03*
X174236Y195731D03*
Y205731D03*
X189289Y313481D03*
Y303481D03*
X170541Y298428D03*
Y308428D03*
G54D94*
X156656Y230501D03*
X144444D03*
G54D95*
X500000Y380000D03*
Y140000D03*
X140000Y380000D03*
Y140000D03*
G54D96*
X361500Y263500D03*
X367600Y249700D03*
G54D97*
X326205Y151458D03*
X333805D03*
X402500Y171000D03*
X410100D03*
X325268Y164098D03*
X332868D03*
X386857Y229694D03*
X379257D03*
X361464Y229663D03*
X369064D03*
X375100Y304600D03*
X382700D03*
X311285Y356756D03*
X318885D03*
X382700Y336456D03*
X375100D03*
X382700Y327811D03*
X375100D03*
X403104Y307337D03*
X410704D03*
X316289Y316331D03*
X323889D03*
X386874Y358705D03*
X379274D03*
X371561Y350309D03*
X379161D03*
X222227Y166022D03*
X229827D03*
X227000Y336856D03*
X234600D03*
X179200Y288442D03*
X186800D03*
Y269929D03*
X179200D03*
X233306Y325000D03*
X240906D03*
X318613Y204663D03*
X326213D03*
X286282Y272562D03*
X293882D03*
X286282Y281119D03*
X293882D03*
X196060Y227923D03*
X203660D03*
X381000Y193254D03*
X373400D03*
X380948Y184885D03*
X373348D03*
G54D98*
X389694Y199805D03*
Y192205D03*
X285800Y167400D03*
Y175000D03*
X426559Y281019D03*
Y273419D03*
X391252Y322045D03*
Y314445D03*
X285800Y347527D03*
Y339927D03*
X432659Y159024D03*
Y151424D03*
X431150Y330429D03*
Y322829D03*
X391115Y329179D03*
Y336779D03*
X285800Y317404D03*
Y325004D03*
Y197800D03*
Y190200D03*
X239090Y180466D03*
Y188066D03*
X214166Y196874D03*
Y189274D03*
X230833Y188203D03*
Y180603D03*
X219630Y304761D03*
Y312361D03*
X202091Y307038D03*
Y314638D03*
X225400Y237300D03*
Y244900D03*
X212400Y237300D03*
Y244900D03*
X235007Y218535D03*
Y226135D03*
X290000Y258147D03*
Y250547D03*
Y236173D03*
Y243773D03*
X225400Y264900D03*
Y257300D03*
X389530Y184522D03*
Y176922D03*
X212400Y264900D03*
Y257300D03*
X234736Y281442D03*
Y273842D03*
X202461Y265933D03*
Y273533D03*
X427906Y191666D03*
Y184066D03*
X311392Y180541D03*
Y188141D03*
G54D99*
X321620Y195901D03*
X326620D03*
X331620D03*
X336620D03*
Y174501D03*
X331620D03*
X326620D03*
X321620D03*
X225500Y274845D03*
X220500D03*
X215500D03*
X210500D03*
Y296245D03*
X215500D03*
X220500D03*
X225500D03*
X316006Y347698D03*
X321006D03*
X326006D03*
X331006D03*
Y326298D03*
X326006D03*
X321006D03*
X316006D03*
X210500Y227689D03*
X215500D03*
X220500D03*
X225500D03*
Y206289D03*
X220500D03*
X215500D03*
X210500D03*
G54D100*
X173841Y377098D03*
X192041D03*
X182941D03*
G54D101*
Y352698D03*
G54D102*
X398598Y180780D03*
Y185780D03*
Y190780D03*
Y195780D03*
X419998D03*
Y190780D03*
Y185780D03*
Y180780D03*
X400710Y317677D03*
Y322677D03*
Y327677D03*
Y332677D03*
X422110D03*
Y327677D03*
Y322677D03*
Y317677D03*
X276700Y255875D03*
Y250875D03*
Y245875D03*
Y240875D03*
X255300D03*
Y245875D03*
Y250875D03*
Y255875D03*
X276700Y283656D03*
Y278656D03*
Y273656D03*
Y268656D03*
X255300D03*
Y273656D03*
Y278656D03*
Y283656D03*
G54D103*
X223914Y183845D02*
Y182222D01*
X220716*
Y183845*
X223914*
X220716Y183339D02*
X223914D01*
X221535Y182222D02*
Y183845D01*
X222693Y182222D02*
Y183845D01*
X223850Y182222D02*
Y183845D01*
X223914Y181877D02*
Y180253D01*
X220716*
Y181877*
X223914*
X220716Y181024D02*
X223914D01*
X221535Y180253D02*
Y181877D01*
X222693Y180253D02*
Y181877D01*
X223850Y180253D02*
Y181877D01*
X223914Y179908D02*
Y178285D01*
X220716*
Y179908*
X223914*
X220716Y178709D02*
X223914D01*
X220716Y179866D02*
X223914D01*
X221535Y178285D02*
Y179908D01*
X222693Y178285D02*
Y179908D01*
X223850Y178285D02*
Y179908D01*
X223914Y177940D02*
Y176316D01*
X220716*
Y177940*
X223914*
X220716Y176394D02*
X223914D01*
X220716Y177551D02*
X223914D01*
X221535Y176316D02*
Y177940D01*
X222693Y176316D02*
Y177940D01*
X223850Y176316D02*
Y177940D01*
X213284D02*
Y176316D01*
X210086*
Y177940*
X213284*
X210086Y176394D02*
X213284D01*
X210086Y177551D02*
X213284D01*
X211118Y176316D02*
Y177940D01*
X212276Y176316D02*
Y177940D01*
X213284Y179908D02*
Y178285D01*
X210086*
Y179908*
X213284*
X210086Y178709D02*
X213284D01*
X210086Y179866D02*
X213284D01*
X211118Y178285D02*
Y179908D01*
X212276Y178285D02*
Y179908D01*
X213284Y181877D02*
Y180253D01*
X210086*
Y181877*
X213284*
X210086Y181024D02*
X213284D01*
X211118Y180253D02*
Y181877D01*
X212276Y180253D02*
Y181877D01*
X213284Y183845D02*
Y182222D01*
X210086*
Y183845*
X213284*
X210086Y183339D02*
X213284D01*
X211118Y182222D02*
Y183845D01*
X212276Y182222D02*
Y183845D01*
X223914Y326255D02*
Y324631D01*
X220716*
Y326255*
X223914*
X220716Y325709D02*
X223914D01*
X221535Y324631D02*
Y326255D01*
X222693Y324631D02*
Y326255D01*
X223850Y324631D02*
Y326255D01*
X223914Y324286D02*
Y322662D01*
X220716*
Y324286*
X223914*
X220716Y323394D02*
X223914D01*
X221535Y322662D02*
Y324286D01*
X222693Y322662D02*
Y324286D01*
X223850Y322662D02*
Y324286D01*
X223914Y322318D02*
Y320694D01*
X220716*
Y322318*
X223914*
X220716Y321079D02*
X223914D01*
X220716Y322236D02*
X223914D01*
X221535Y320694D02*
Y322318D01*
X222693Y320694D02*
Y322318D01*
X223850Y320694D02*
Y322318D01*
X223914Y320349D02*
Y318725D01*
X220716*
Y320349*
X223914*
X220716Y318764D02*
X223914D01*
X220716Y319921D02*
X223914D01*
X221535Y318725D02*
Y320349D01*
X222693Y318725D02*
Y320349D01*
X223850Y318725D02*
Y320349D01*
X213284D02*
Y318725D01*
X210086*
Y320349*
X213284*
X210086Y318764D02*
X213284D01*
X210086Y319921D02*
X213284D01*
X211118Y318725D02*
Y320349D01*
X212276Y318725D02*
Y320349D01*
X213284Y322318D02*
Y320694D01*
X210086*
Y322318*
X213284*
X210086Y321079D02*
X213284D01*
X210086Y322236D02*
X213284D01*
X211118Y320694D02*
Y322318D01*
X212276Y320694D02*
Y322318D01*
X213284Y324286D02*
Y322662D01*
X210086*
Y324286*
X213284*
X210086Y323394D02*
X213284D01*
X211118Y322662D02*
Y324286D01*
X212276Y322662D02*
Y324286D01*
X213284Y326255D02*
Y324631D01*
X210086*
Y326255*
X213284*
X210086Y325709D02*
X213284D01*
X211118Y324631D02*
Y326255D01*
X212276Y324631D02*
Y326255D01*
G54D104*
X217042Y349679D03*
X237120D03*
X470031Y245484D03*
X449953D03*
X449930Y260672D03*
X470008D03*
G54D105*
X166300Y142900D03*
X184900D03*
G54D106*
X263900Y325000D03*
X273700D03*
X263900Y340000D03*
X273700D03*
X263900Y190000D03*
X273700D03*
X263900Y175000D03*
X273700D03*
G54D107*
X250800Y315100D03*
Y324900D03*
Y349952D03*
Y340152D03*
Y199752D03*
Y189952D03*
Y165100D03*
Y174900D03*
X364912Y327393D03*
Y337193D03*
X351314Y327068D03*
Y336868D03*
X349353Y185494D03*
Y175694D03*
X362790Y185140D03*
Y175340D03*
X155000Y294506D03*
Y304306D03*
X158000Y209452D03*
Y199652D03*
G54D108*
X331306Y315915D03*
Y365915D03*
X341306Y345837D03*
X0Y0D02*
M02*
