*
*
G04 PADS 9.2 Build Number: 414666 generated Gerber (RS-274-X) file*
G04 PC Version=2.1*
*
%IN "SDRX.pcb"*%
*
%MOIN*%
*
%FSLAX35Y35*%
*
*
*
*
G04 PC Standard Apertures*
*
*
G04 Thermal Relief Aperture macro.*
%AMTER*
1,1,$1,0,0*
1,0,$1-$2,0,0*
21,0,$3,$4,0,0,45*
21,0,$3,$4,0,0,135*
%
*
*
G04 Annular Aperture macro.*
%AMANN*
1,1,$1,0,0*
1,0,$2,0,0*
%
*
*
G04 Odd Aperture macro.*
%AMODD*
1,1,$1,0,0*
1,0,$1-0.005,0,0*
%
*
*
G04 PC Custom Aperture Macros*
*
*
*
*
*
*
G04 PC Aperture Table*
*
%ADD011C,0.06*%
%ADD013C,0.23622*%
%ADD022C,0.055*%
%ADD024C,0.001*%
%ADD025C,0.01*%
%ADD055C,0.11811*%
%ADD056C,0.1378*%
%ADD057C,0.07874*%
%ADD058O,0.05118X0.04331*%
%ADD059C,0.09843*%
*
*
*
*
G04 PC Circuitry*
G04 Layer Name SDRX.pcb - circuitry*
%LPD*%
*
*
G04 PC Custom Flashes*
G04 Layer Name SDRX.pcb - flashes*
%LPD*%
*
*
G04 PC Circuitry*
G04 Layer Name SDRX.pcb - circuitry*
%LPD*%
*
G54D11*
G01X354000Y161145D03*
X364000D03*
X244780Y365000D03*
X234780D03*
X244780Y375000D03*
X234780D03*
X244780Y385000D03*
X234780D03*
X438613Y185217D03*
Y195217D03*
Y205217D03*
X354000Y315349D03*
X364000D03*
X442758Y311964D03*
Y321964D03*
Y331964D03*
X485000Y280000D03*
X495000D03*
X485000Y270000D03*
X495000D03*
X485000Y260000D03*
X495000D03*
X485000Y250000D03*
X495000D03*
X485000Y240000D03*
X495000D03*
X453100Y223769D03*
X463100D03*
X455200Y344540D03*
X465200D03*
X280000Y135000D03*
Y145000D03*
X210000Y135000D03*
Y145000D03*
X220000Y135000D03*
Y145000D03*
X230000Y135000D03*
Y145000D03*
X240000Y135000D03*
Y145000D03*
X331306Y315915D03*
Y365915D03*
X341306Y345837D03*
G54D13*
X500000Y380000D03*
Y140000D03*
X140000Y380000D03*
Y140000D03*
G54D22*
X132100Y171100D03*
X218700Y173000D03*
X180600Y127700D03*
X175200Y143600D03*
X156000Y179800D03*
X176200Y160500D03*
X171222Y178056D03*
X202500Y167500D03*
X284700Y154700D03*
X280300Y161200D03*
X294349Y158393D03*
X227500Y174100D03*
X249200Y158100D03*
X258000Y153400D03*
X259300Y133800D03*
X294200Y129500D03*
X374600Y173500D03*
X305000Y145600D03*
X340300Y144500D03*
X364700D03*
X300000Y172500D03*
X317100Y129500D03*
X347200D03*
X375200D03*
X383700Y162500D03*
X416000Y144500D03*
X453434Y170753D03*
X422500Y160000D03*
X407300Y129500D03*
X433000D03*
X481400Y148800D03*
X506200Y163300D03*
X481300Y129500D03*
X130300Y234700D03*
X131700Y199700D03*
X166400Y216200D03*
X169100Y234200D03*
X219100Y250700D03*
X208300Y217300D03*
X218100Y214600D03*
X184300Y209500D03*
X182600Y218300D03*
X187400Y240600D03*
X193900Y216400D03*
X199161Y250462D03*
X297200Y210200D03*
X285000Y208100D03*
X271200Y234800D03*
X260000Y229800D03*
X263700Y240200D03*
X226200Y217300D03*
X240100Y211200D03*
X236700Y200700D03*
X249900Y224700D03*
X262400Y202700D03*
X259300Y215600D03*
X275900Y225700D03*
X297500Y225400D03*
X250200Y208200D03*
X247500Y240000D03*
X231400Y206200D03*
X376600Y215200D03*
X367100Y198700D03*
X341700Y258700D03*
X349900Y246700D03*
X366834Y215634D03*
X344370Y228280D03*
X357500Y197500D03*
X320800Y259800D03*
X324900Y238200D03*
X399200Y232800D03*
X407300Y215200D03*
X429000Y216900D03*
X441100Y220000D03*
X397500Y217500D03*
X382500Y200000D03*
X416559Y237790D03*
X412500Y195000D03*
X511500Y184200D03*
X508300Y239700D03*
X509400Y258100D03*
X139100Y295000D03*
X130300Y319900D03*
X130600Y280300D03*
X168500Y285200D03*
X212700Y311900D03*
X196500Y289200D03*
X204600Y281500D03*
X159300Y329100D03*
X156300Y316600D03*
X173384Y327841D03*
X189000Y264000D03*
X202500Y260000D03*
X210000Y305000D03*
X298500Y309800D03*
X285000Y310900D03*
X227500Y318100D03*
X264100Y276000D03*
X245500Y281500D03*
X233000Y306500D03*
X263700Y299000D03*
X299900Y294000D03*
X261000Y310900D03*
X243100Y312900D03*
X227500Y282500D03*
X269200Y282400D03*
X283300Y260500D03*
X255000Y302500D03*
X240000Y262500D03*
X345200Y272700D03*
X370200Y295600D03*
X364400Y285500D03*
X324900Y281800D03*
X409700Y272200D03*
X400000Y281700D03*
X389300Y293600D03*
X430000Y302500D03*
X412500Y332500D03*
X445802Y293065D03*
X388100Y280400D03*
X392100Y266900D03*
X402600Y263200D03*
X454600Y277700D03*
X416589Y260672D03*
X464100Y295300D03*
X468500Y284500D03*
X494900Y306500D03*
X509400Y294500D03*
X135148Y343248D03*
X201700Y368400D03*
X192400Y364300D03*
X173100Y364800D03*
X159000Y368600D03*
X162700Y386900D03*
X176600Y341300D03*
X142000Y359900D03*
X200200Y345400D03*
X200000Y392500D03*
X217142Y384345D03*
X173841Y377698D03*
X293500Y371000D03*
X275900Y368300D03*
X285000Y353800D03*
X261700Y355800D03*
Y374000D03*
X268800Y389500D03*
X296500D03*
X237317Y349679D03*
X378900Y370200D03*
X354545Y370303D03*
X324900Y389500D03*
X347900D03*
X369200D03*
X432461Y348033D03*
X392800Y351600D03*
X390000Y345000D03*
X398700Y368400D03*
X420600Y368000D03*
X441800Y368700D03*
X390800Y389500D03*
X413400D03*
X444200D03*
X492700Y359500D03*
X503700Y343600D03*
X468200Y389500D03*
G54D24*
G54D25*
X249480Y375000D02*
G75*
G03X249480I-4700J0D01*
G01X234700Y135000D02*
G03X234700I-4700J0D01*
G01Y145000D02*
G03X234700I-4700J0D01*
G01X239480Y375000D02*
G03X239480I-4700J0D01*
G01X224700Y135000D02*
G03X224700I-4700J0D01*
G01Y145000D02*
G03X224700I-4700J0D01*
G01X160637Y260000D02*
G03X160637I-5637J0D01*
G01X511424Y200000D02*
G03X511424I-8589J0D01*
G01X499700Y250000D02*
G03X499700I-4700J0D01*
G01Y260000D02*
G03X499700I-4700J0D01*
G01Y270000D02*
G03X499700I-4700J0D01*
G01X511424Y320000D02*
G03X511424I-8589J0D01*
G01X488590Y180315D02*
G03X488590I-8590J0D01*
G01X487606Y200000D02*
G03X487606I-7606J0D01*
G01X488590Y219685D02*
G03X488590I-8590J0D01*
G01X489700Y250000D02*
G03X489700I-4700J0D01*
G01Y260000D02*
G03X489700I-4700J0D01*
G01Y270000D02*
G03X489700I-4700J0D01*
G01X488590Y300315D02*
G03X488590I-8590J0D01*
G01X487606Y320000D02*
G03X487606I-7606J0D01*
G01X488590Y339685D02*
G03X488590I-8590J0D01*
G01X467800Y223769D02*
G03X467800I-4700J0D01*
G01X469900Y344540D02*
G03X469900I-4700J0D01*
G01X443313Y185217D02*
G03X443313I-4700J0D01*
G01Y195217D02*
G03X443313I-4700J0D01*
G01Y205217D02*
G03X443313I-4700J0D01*
G01X447458Y311964D02*
G03X447458I-4700J0D01*
G01Y321964D02*
G03X447458I-4700J0D01*
G01Y331964D02*
G03X447458I-4700J0D01*
G01X368700Y161145D02*
G03X368700I-4700J0D01*
G01Y315349D02*
G03X368700I-4700J0D01*
G01X358700Y161145D02*
G03X358700I-4700J0D01*
G01Y315349D02*
G03X358700I-4700J0D01*
G01X346006Y345837D02*
G03X346006I-4700J0D01*
G01X336006Y315915D02*
G03X336006I-4700J0D01*
G01Y365915D02*
G03X336006I-4700J0D01*
G01X517300Y381500D02*
Y397300D01*
X122700*
Y122700*
X517300*
Y138500*
X513428*
X486572D02*
G03X513428I13428J1500D01*
G01X486572D02*
X267000D01*
Y220500*
X317293*
X332000Y235207*
Y284793*
X317293Y299500*
X267000*
Y381500*
X486572*
X513428D02*
G03X486572I-13428J-1500D01*
G01X513428D02*
X517300D01*
Y141500D02*
Y378500D01*
X513428*
X486572D02*
G03X513428I13428J1500D01*
G01X486572D02*
X270000D01*
Y302500*
X318707*
X335000Y286207*
Y233793*
X318707Y217500*
X270000*
Y141500*
X486572*
X513428D02*
G03X486572I-13428J-1500D01*
G01X513428D02*
X517300D01*
X249480Y375000D02*
G03X249480I-4700J0D01*
G01X234700Y135000D02*
G03X234700I-4700J0D01*
G01Y145000D02*
G03X234700I-4700J0D01*
G01X239480Y375000D02*
G03X239480I-4700J0D01*
G01X224700Y135000D02*
G03X224700I-4700J0D01*
G01Y145000D02*
G03X224700I-4700J0D01*
G01X160637Y260000D02*
G03X160637I-5637J0D01*
G01X313301Y252500D02*
G03X310353Y258865I-2948J2500D01*
G01Y246135D02*
G03X313301Y252500I-0J3865D01*
G01X310353Y246135D02*
X309565D01*
X306617Y252500D02*
G03X309565Y246135I2948J-2500D01*
G01Y258865D02*
G03X306617Y252500I0J-3865D01*
G01X309565Y258865D02*
X310353D01*
X313301Y267500D02*
G03X310353Y273865I-2948J2500D01*
G01Y261135D02*
G03X313301Y267500I-0J3865D01*
G01X310353Y261135D02*
X309565D01*
X306617Y267500D02*
G03X309565Y261135I2948J-2500D01*
G01Y273865D02*
G03X306617Y267500I0J-3865D01*
G01X309565Y273865D02*
X310353D01*
X511424Y200000D02*
G03X511424I-8589J0D01*
G01X499700Y250000D02*
G03X499700I-4700J0D01*
G01Y260000D02*
G03X499700I-4700J0D01*
G01Y270000D02*
G03X499700I-4700J0D01*
G01X511424Y320000D02*
G03X511424I-8589J0D01*
G01X488590Y180315D02*
G03X488590I-8590J0D01*
G01X487606Y200000D02*
G03X487606I-7606J0D01*
G01X488590Y219685D02*
G03X488590I-8590J0D01*
G01X489700Y250000D02*
G03X489700I-4700J0D01*
G01Y260000D02*
G03X489700I-4700J0D01*
G01Y270000D02*
G03X489700I-4700J0D01*
G01X488590Y300315D02*
G03X488590I-8590J0D01*
G01X487606Y320000D02*
G03X487606I-7606J0D01*
G01X488590Y339685D02*
G03X488590I-8590J0D01*
G01X467800Y223769D02*
G03X467800I-4700J0D01*
G01X469900Y344540D02*
G03X469900I-4700J0D01*
G01X443313Y185217D02*
G03X443313I-4700J0D01*
G01Y195217D02*
G03X443313I-4700J0D01*
G01Y205217D02*
G03X443313I-4700J0D01*
G01X447458Y311964D02*
G03X447458I-4700J0D01*
G01Y321964D02*
G03X447458I-4700J0D01*
G01Y331964D02*
G03X447458I-4700J0D01*
G01X368700Y161145D02*
G03X368700I-4700J0D01*
G01Y315349D02*
G03X368700I-4700J0D01*
G01X358700Y161145D02*
G03X358700I-4700J0D01*
G01Y315349D02*
G03X358700I-4700J0D01*
G01X346006Y345837D02*
G03X346006I-4700J0D01*
G01X336006Y315915D02*
G03X336006I-4700J0D01*
G01Y365915D02*
G03X336006I-4700J0D01*
G01X122700Y396799D02*
X517300D01*
X122700Y395899D02*
X517300D01*
X122700Y394999D02*
X517300D01*
X122700Y394099D02*
X517300D01*
X502888Y393199D02*
X517300D01*
X505594Y392299D02*
X517300D01*
X507254Y391399D02*
X517300D01*
X508504Y390499D02*
X517300D01*
X509509Y389599D02*
X517300D01*
X510338Y388699D02*
X517300D01*
X511033Y387799D02*
X517300D01*
X511617Y386899D02*
X517300D01*
X512106Y385999D02*
X517300D01*
X512512Y385099D02*
X517300D01*
X512842Y384199D02*
X517300D01*
X513102Y383299D02*
X517300D01*
X513296Y382399D02*
X517300D01*
X513427Y138499D02*
X517300D01*
X513296Y137599D02*
X517300D01*
X513102Y136699D02*
X517300D01*
X512841Y135799D02*
X517300D01*
X512511Y134899D02*
X517300D01*
X512105Y133999D02*
X517300D01*
X511616Y133099D02*
X517300D01*
X511031Y132199D02*
X517300D01*
X510336Y131299D02*
X517300D01*
X509506Y130399D02*
X517300D01*
X508501Y129499D02*
X517300D01*
X507250Y128599D02*
X517300D01*
X505588Y127699D02*
X517300D01*
X502876Y126799D02*
X517300D01*
X122700Y125899D02*
X517300D01*
X122700Y124999D02*
X517300D01*
X122700Y124099D02*
X517300D01*
X122700Y123199D02*
X517300D01*
X122700Y126799D02*
X497124D01*
X122700Y393199D02*
X497112D01*
X122700Y127699D02*
X494412D01*
X122700Y392299D02*
X494406D01*
X122700Y128599D02*
X492750D01*
X122700Y391399D02*
X492746D01*
X122700Y129499D02*
X491499D01*
X122700Y390499D02*
X491496D01*
X230958Y130399D02*
X490494D01*
X122700Y389599D02*
X490491D01*
X232897Y131299D02*
X489664D01*
X122700Y388699D02*
X489662D01*
X233774Y132199D02*
X488969D01*
X122700Y387799D02*
X488967D01*
X234298Y133099D02*
X488384D01*
X122700Y386899D02*
X488383D01*
X234592Y133999D02*
X487895D01*
X122700Y385999D02*
X487894D01*
X234699Y134899D02*
X487489D01*
X122700Y385099D02*
X487488D01*
X234632Y135799D02*
X487159D01*
X122700Y384199D02*
X487158D01*
X234382Y136699D02*
X486898D01*
X122700Y383299D02*
X486898D01*
X233916Y137599D02*
X486704D01*
X122700Y382399D02*
X486704D01*
X233138Y138499D02*
X486573D01*
X122700Y284299D02*
X332000D01*
X122700Y283399D02*
X332000D01*
X122700Y282499D02*
X332000D01*
X122700Y281599D02*
X332000D01*
X122700Y280699D02*
X332000D01*
X122700Y279799D02*
X332000D01*
X122700Y278899D02*
X332000D01*
X122700Y277999D02*
X332000D01*
X122700Y277099D02*
X332000D01*
X122700Y276199D02*
X332000D01*
X122700Y275299D02*
X332000D01*
X122700Y274399D02*
X332000D01*
X311996Y273499D02*
X332000D01*
X313214Y272599D02*
X332000D01*
X313825Y271699D02*
X332000D01*
X314135Y270799D02*
X332000D01*
X314217Y269899D02*
X332000D01*
X314086Y268999D02*
X332000D01*
X313718Y268099D02*
X332000D01*
X313532Y267199D02*
X332000D01*
X313993Y266299D02*
X332000D01*
X314197Y265399D02*
X332000D01*
X314185Y264499D02*
X332000D01*
X313955Y263599D02*
X332000D01*
X313458Y262699D02*
X332000D01*
X312519Y261799D02*
X332000D01*
X160565Y260899D02*
X332000D01*
X160637Y259999D02*
X332000D01*
X160565Y259099D02*
X332000D01*
X312523Y258199D02*
X332000D01*
X313460Y257299D02*
X332000D01*
X313956Y256399D02*
X332000D01*
X314186Y255499D02*
X332000D01*
X314197Y254599D02*
X332000D01*
X313992Y253699D02*
X332000D01*
X313530Y252799D02*
X332000D01*
X313720Y251899D02*
X332000D01*
X314087Y250999D02*
X332000D01*
X314217Y250099D02*
X332000D01*
X314134Y249199D02*
X332000D01*
X313824Y248299D02*
X332000D01*
X313212Y247399D02*
X332000D01*
X311990Y246499D02*
X332000D01*
X122700Y245599D02*
X332000D01*
X122700Y244699D02*
X332000D01*
X122700Y243799D02*
X332000D01*
X122700Y242899D02*
X332000D01*
X122700Y241999D02*
X332000D01*
X122700Y241099D02*
X332000D01*
X122700Y240199D02*
X332000D01*
X122700Y239299D02*
X332000D01*
X122700Y238399D02*
X332000D01*
X122700Y237499D02*
X332000D01*
X122700Y236599D02*
X332000D01*
X122700Y235699D02*
X332000D01*
X122700Y285199D02*
X331594D01*
X122700Y234799D02*
X331592D01*
X122700Y286099D02*
X330694D01*
X122700Y233899D02*
X330692D01*
X122700Y286999D02*
X329794D01*
X122700Y232999D02*
X329792D01*
X122700Y287899D02*
X328894D01*
X122700Y232099D02*
X328892D01*
X122700Y288799D02*
X327994D01*
X122700Y231199D02*
X327992D01*
X122700Y289699D02*
X327094D01*
X122700Y230299D02*
X327092D01*
X122700Y290599D02*
X326194D01*
X122700Y229399D02*
X326192D01*
X122700Y291499D02*
X325294D01*
X122700Y228499D02*
X325292D01*
X122700Y292399D02*
X324394D01*
X122700Y227599D02*
X324392D01*
X122700Y293299D02*
X323494D01*
X122700Y226699D02*
X323492D01*
X122700Y294199D02*
X322594D01*
X122700Y225799D02*
X322592D01*
X122700Y295099D02*
X321694D01*
X122700Y224899D02*
X321692D01*
X122700Y295999D02*
X320794D01*
X122700Y223999D02*
X320792D01*
X122700Y296899D02*
X319894D01*
X122700Y223099D02*
X319892D01*
X122700Y297799D02*
X318994D01*
X122700Y222199D02*
X318992D01*
X122700Y298699D02*
X318094D01*
X122700Y221299D02*
X318092D01*
X122700Y246499D02*
X307928D01*
X122700Y273499D02*
X307922D01*
X160342Y261799D02*
X307399D01*
X160341Y258199D02*
X307395D01*
X122700Y247399D02*
X306706D01*
X122700Y272599D02*
X306704D01*
X159949Y262699D02*
X306460D01*
X159948Y257299D02*
X306458D01*
X122700Y252799D02*
X306388D01*
X122700Y267199D02*
X306386D01*
X122700Y268099D02*
X306200D01*
X122700Y251899D02*
X306198D01*
X122700Y248299D02*
X306094D01*
X122700Y271699D02*
X306093D01*
X159339Y263599D02*
X305963D01*
X159337Y256399D02*
X305962D01*
X122700Y253699D02*
X305926D01*
X122700Y266299D02*
X305925D01*
X122700Y268999D02*
X305832D01*
X122700Y250999D02*
X305831D01*
X122700Y249199D02*
X305784D01*
X122700Y270799D02*
X305783D01*
X158397Y264499D02*
X305733D01*
X158393Y255499D02*
X305732D01*
X156613Y254599D02*
X305721D01*
X156622Y265399D02*
X305721D01*
X122700Y269899D02*
X305701D01*
X122700Y250099D02*
X305701D01*
X122700Y381499D02*
X267000D01*
X122700Y380599D02*
X267000D01*
X244892Y379699D02*
X267000D01*
X247548Y378799D02*
X267000D01*
X248480Y377899D02*
X267000D01*
X249034Y376999D02*
X267000D01*
X249350Y376099D02*
X267000D01*
X249476Y375199D02*
X267000D01*
X249427Y374299D02*
X267000D01*
X249199Y373399D02*
X267000D01*
X248759Y372499D02*
X267000D01*
X248024Y371599D02*
X267000D01*
X246674Y370699D02*
X267000D01*
X122700Y369799D02*
X267000D01*
X122700Y368899D02*
X267000D01*
X122700Y367999D02*
X267000D01*
X122700Y367099D02*
X267000D01*
X122700Y366199D02*
X267000D01*
X122700Y365299D02*
X267000D01*
X122700Y364399D02*
X267000D01*
X122700Y363499D02*
X267000D01*
X122700Y362599D02*
X267000D01*
X122700Y361699D02*
X267000D01*
X122700Y360799D02*
X267000D01*
X122700Y359899D02*
X267000D01*
X122700Y358999D02*
X267000D01*
X122700Y358099D02*
X267000D01*
X122700Y357199D02*
X267000D01*
X122700Y356299D02*
X267000D01*
X122700Y355399D02*
X267000D01*
X122700Y354499D02*
X267000D01*
X122700Y353599D02*
X267000D01*
X122700Y352699D02*
X267000D01*
X122700Y351799D02*
X267000D01*
X122700Y350899D02*
X267000D01*
X122700Y349999D02*
X267000D01*
X122700Y349099D02*
X267000D01*
X122700Y348199D02*
X267000D01*
X122700Y347299D02*
X267000D01*
X122700Y346399D02*
X267000D01*
X122700Y345499D02*
X267000D01*
X122700Y344599D02*
X267000D01*
X122700Y343699D02*
X267000D01*
X122700Y342799D02*
X267000D01*
X122700Y341899D02*
X267000D01*
X122700Y340999D02*
X267000D01*
X122700Y340099D02*
X267000D01*
X122700Y339199D02*
X267000D01*
X122700Y338299D02*
X267000D01*
X122700Y337399D02*
X267000D01*
X122700Y336499D02*
X267000D01*
X122700Y335599D02*
X267000D01*
X122700Y334699D02*
X267000D01*
X122700Y333799D02*
X267000D01*
X122700Y332899D02*
X267000D01*
X122700Y331999D02*
X267000D01*
X122700Y331099D02*
X267000D01*
X122700Y330199D02*
X267000D01*
X122700Y329299D02*
X267000D01*
X122700Y328399D02*
X267000D01*
X122700Y327499D02*
X267000D01*
X122700Y326599D02*
X267000D01*
X122700Y325699D02*
X267000D01*
X122700Y324799D02*
X267000D01*
X122700Y323899D02*
X267000D01*
X122700Y322999D02*
X267000D01*
X122700Y322099D02*
X267000D01*
X122700Y321199D02*
X267000D01*
X122700Y320299D02*
X267000D01*
X122700Y319399D02*
X267000D01*
X122700Y318499D02*
X267000D01*
X122700Y317599D02*
X267000D01*
X122700Y316699D02*
X267000D01*
X122700Y315799D02*
X267000D01*
X122700Y314899D02*
X267000D01*
X122700Y313999D02*
X267000D01*
X122700Y313099D02*
X267000D01*
X122700Y312199D02*
X267000D01*
X122700Y311299D02*
X267000D01*
X122700Y310399D02*
X267000D01*
X122700Y309499D02*
X267000D01*
X122700Y308599D02*
X267000D01*
X122700Y307699D02*
X267000D01*
X122700Y306799D02*
X267000D01*
X122700Y305899D02*
X267000D01*
X122700Y304999D02*
X267000D01*
X122700Y304099D02*
X267000D01*
X122700Y303199D02*
X267000D01*
X122700Y302299D02*
X267000D01*
X122700Y301399D02*
X267000D01*
X122700Y300499D02*
X267000D01*
X122700Y299599D02*
X267000D01*
X122700Y220399D02*
X267000D01*
X122700Y219499D02*
X267000D01*
X122700Y218599D02*
X267000D01*
X122700Y217699D02*
X267000D01*
X122700Y216799D02*
X267000D01*
X122700Y215899D02*
X267000D01*
X122700Y214999D02*
X267000D01*
X122700Y214099D02*
X267000D01*
X122700Y213199D02*
X267000D01*
X122700Y212299D02*
X267000D01*
X122700Y211399D02*
X267000D01*
X122700Y210499D02*
X267000D01*
X122700Y209599D02*
X267000D01*
X122700Y208699D02*
X267000D01*
X122700Y207799D02*
X267000D01*
X122700Y206899D02*
X267000D01*
X122700Y205999D02*
X267000D01*
X122700Y205099D02*
X267000D01*
X122700Y204199D02*
X267000D01*
X122700Y203299D02*
X267000D01*
X122700Y202399D02*
X267000D01*
X122700Y201499D02*
X267000D01*
X122700Y200599D02*
X267000D01*
X122700Y199699D02*
X267000D01*
X122700Y198799D02*
X267000D01*
X122700Y197899D02*
X267000D01*
X122700Y196999D02*
X267000D01*
X122700Y196099D02*
X267000D01*
X122700Y195199D02*
X267000D01*
X122700Y194299D02*
X267000D01*
X122700Y193399D02*
X267000D01*
X122700Y192499D02*
X267000D01*
X122700Y191599D02*
X267000D01*
X122700Y190699D02*
X267000D01*
X122700Y189799D02*
X267000D01*
X122700Y188899D02*
X267000D01*
X122700Y187999D02*
X267000D01*
X122700Y187099D02*
X267000D01*
X122700Y186199D02*
X267000D01*
X122700Y185299D02*
X267000D01*
X122700Y184399D02*
X267000D01*
X122700Y183499D02*
X267000D01*
X122700Y182599D02*
X267000D01*
X122700Y181699D02*
X267000D01*
X122700Y180799D02*
X267000D01*
X122700Y179899D02*
X267000D01*
X122700Y178999D02*
X267000D01*
X122700Y178099D02*
X267000D01*
X122700Y177199D02*
X267000D01*
X122700Y176299D02*
X267000D01*
X122700Y175399D02*
X267000D01*
X122700Y174499D02*
X267000D01*
X122700Y173599D02*
X267000D01*
X122700Y172699D02*
X267000D01*
X122700Y171799D02*
X267000D01*
X122700Y170899D02*
X267000D01*
X122700Y169999D02*
X267000D01*
X122700Y169099D02*
X267000D01*
X122700Y168199D02*
X267000D01*
X122700Y167299D02*
X267000D01*
X122700Y166399D02*
X267000D01*
X122700Y165499D02*
X267000D01*
X122700Y164599D02*
X267000D01*
X122700Y163699D02*
X267000D01*
X122700Y162799D02*
X267000D01*
X122700Y161899D02*
X267000D01*
X122700Y160999D02*
X267000D01*
X122700Y160099D02*
X267000D01*
X122700Y159199D02*
X267000D01*
X122700Y158299D02*
X267000D01*
X122700Y157399D02*
X267000D01*
X122700Y156499D02*
X267000D01*
X122700Y155599D02*
X267000D01*
X122700Y154699D02*
X267000D01*
X122700Y153799D02*
X267000D01*
X122700Y152899D02*
X267000D01*
X122700Y151999D02*
X267000D01*
X122700Y151099D02*
X267000D01*
X122700Y150199D02*
X267000D01*
X231900Y149299D02*
X267000D01*
X233246Y148399D02*
X267000D01*
X233981Y147499D02*
X267000D01*
X234420Y146599D02*
X267000D01*
X234648Y145699D02*
X267000D01*
X234696Y144799D02*
X267000D01*
X234569Y143899D02*
X267000D01*
X234253Y142999D02*
X267000D01*
X233698Y142099D02*
X267000D01*
X232764Y141199D02*
X267000D01*
X122700Y140299D02*
X267000D01*
X231656Y139399D02*
X267000D01*
X234892Y379699D02*
X244668D01*
X236674Y370699D02*
X242886D01*
X237548Y378799D02*
X242012D01*
X238024Y371599D02*
X241536D01*
X238480Y377899D02*
X241080D01*
X238759Y372499D02*
X240801D01*
X239034Y376999D02*
X240526D01*
X239199Y373399D02*
X240361D01*
X239350Y376099D02*
X240210D01*
X239427Y374299D02*
X240133D01*
X239476Y375199D02*
X240084D01*
X122700Y379699D02*
X234668D01*
X122700Y370699D02*
X232886D01*
X122700Y378799D02*
X232012D01*
X122700Y371599D02*
X231536D01*
X122700Y377899D02*
X231080D01*
X122700Y372499D02*
X230801D01*
X122700Y376999D02*
X230526D01*
X122700Y373399D02*
X230361D01*
X122700Y376099D02*
X230210D01*
X122700Y374299D02*
X230133D01*
X122700Y375199D02*
X230084D01*
X220958Y130399D02*
X229042D01*
X221656Y139399D02*
X228344D01*
X221900Y149299D02*
X228100D01*
X222764Y141199D02*
X227236D01*
X222897Y131299D02*
X227103D01*
X223138Y138499D02*
X226862D01*
X223246Y148399D02*
X226754D01*
X223698Y142099D02*
X226302D01*
X223774Y132199D02*
X226226D01*
X223916Y137599D02*
X226084D01*
X223981Y147499D02*
X226019D01*
X224253Y142999D02*
X225747D01*
X224298Y133099D02*
X225702D01*
X224382Y136699D02*
X225618D01*
X224420Y146599D02*
X225580D01*
X224569Y143899D02*
X225431D01*
X224592Y133999D02*
X225408D01*
X224632Y135799D02*
X225368D01*
X224648Y145699D02*
X225352D01*
X224696Y144799D02*
X225304D01*
X224699Y134899D02*
X225301D01*
X122700Y130399D02*
X219042D01*
X122700Y139399D02*
X218344D01*
X122700Y149299D02*
X218100D01*
X122700Y141199D02*
X217236D01*
X122700Y131299D02*
X217103D01*
X122700Y138499D02*
X216862D01*
X122700Y148399D02*
X216754D01*
X122700Y142099D02*
X216302D01*
X122700Y132199D02*
X216226D01*
X122700Y137599D02*
X216084D01*
X122700Y147499D02*
X216019D01*
X122700Y142999D02*
X215747D01*
X122700Y133099D02*
X215702D01*
X122700Y136699D02*
X215618D01*
X122700Y146599D02*
X215580D01*
X122700Y143899D02*
X215431D01*
X122700Y133999D02*
X215408D01*
X122700Y135799D02*
X215368D01*
X122700Y145699D02*
X215352D01*
X122700Y144799D02*
X215304D01*
X122700Y134899D02*
X215301D01*
X122700Y254599D02*
X153387D01*
X122700Y265399D02*
X153378D01*
X122700Y255499D02*
X151607D01*
X122700Y264499D02*
X151603D01*
X122700Y256399D02*
X150663D01*
X122700Y263599D02*
X150661D01*
X122700Y257299D02*
X150052D01*
X122700Y262699D02*
X150051D01*
X122700Y258199D02*
X149659D01*
X122700Y261799D02*
X149658D01*
X122700Y259099D02*
X149435D01*
X122700Y260899D02*
X149435D01*
X122700Y259999D02*
X149363D01*
X513390Y378199D02*
X517300D01*
X513238Y377299D02*
X517300D01*
X513022Y376399D02*
X517300D01*
X512739Y375499D02*
X517300D01*
X512384Y374599D02*
X517300D01*
X511952Y373699D02*
X517300D01*
X511432Y372799D02*
X517300D01*
X510813Y371899D02*
X517300D01*
X510076Y370999D02*
X517300D01*
X509193Y370099D02*
X517300D01*
X508117Y369199D02*
X517300D01*
X506755Y368299D02*
X517300D01*
X504874Y367399D02*
X517300D01*
X500513Y366499D02*
X517300D01*
X335995Y365599D02*
X517300D01*
X335845Y364699D02*
X517300D01*
X335502Y363799D02*
X517300D01*
X334910Y362899D02*
X517300D01*
X333904Y361999D02*
X517300D01*
X270000Y361099D02*
X517300D01*
X270000Y360199D02*
X517300D01*
X270000Y359299D02*
X517300D01*
X270000Y358399D02*
X517300D01*
X270000Y357499D02*
X517300D01*
X270000Y356599D02*
X517300D01*
X270000Y355699D02*
X517300D01*
X270000Y354799D02*
X517300D01*
X270000Y353899D02*
X517300D01*
X270000Y352999D02*
X517300D01*
X270000Y352099D02*
X517300D01*
X270000Y351199D02*
X517300D01*
X342782Y350299D02*
X517300D01*
X344372Y349399D02*
X517300D01*
X467734Y348499D02*
X517300D01*
X483340Y347599D02*
X517300D01*
X484959Y346699D02*
X517300D01*
X486034Y345799D02*
X517300D01*
X486827Y344899D02*
X517300D01*
X487428Y343999D02*
X517300D01*
X487882Y343099D02*
X517300D01*
X488214Y342199D02*
X517300D01*
X488437Y341299D02*
X517300D01*
X488560Y340399D02*
X517300D01*
X488588Y339499D02*
X517300D01*
X488521Y338599D02*
X517300D01*
X488357Y337699D02*
X517300D01*
X488090Y336799D02*
X517300D01*
X487710Y335899D02*
X517300D01*
X487199Y334999D02*
X517300D01*
X486525Y334099D02*
X517300D01*
X485631Y333199D02*
X517300D01*
X484385Y332299D02*
X517300D01*
X482263Y331399D02*
X517300D01*
X447224Y330499D02*
X517300D01*
X446820Y329599D02*
X517300D01*
X446139Y328699D02*
X517300D01*
X506435Y327799D02*
X517300D01*
X507953Y326899D02*
X517300D01*
X508983Y325999D02*
X517300D01*
X509748Y325099D02*
X517300D01*
X510328Y324199D02*
X517300D01*
X510766Y323299D02*
X517300D01*
X511083Y322399D02*
X517300D01*
X511293Y321499D02*
X517300D01*
X511404Y320599D02*
X517300D01*
X511419Y319699D02*
X517300D01*
X511340Y318799D02*
X517300D01*
X511163Y317899D02*
X517300D01*
X510883Y316999D02*
X517300D01*
X510487Y316099D02*
X517300D01*
X509957Y315199D02*
X517300D01*
X509260Y314299D02*
X517300D01*
X508331Y313399D02*
X517300D01*
X507020Y312499D02*
X517300D01*
X504624Y311599D02*
X517300D01*
X447285Y310699D02*
X517300D01*
X446930Y309799D02*
X517300D01*
X480323Y308899D02*
X517300D01*
X483840Y307999D02*
X517300D01*
X485269Y307099D02*
X517300D01*
X486258Y306199D02*
X517300D01*
X486996Y305299D02*
X517300D01*
X487557Y304399D02*
X517300D01*
X487978Y303499D02*
X517300D01*
X488281Y302599D02*
X517300D01*
X488478Y301699D02*
X517300D01*
X488576Y300799D02*
X517300D01*
X488580Y299899D02*
X517300D01*
X488488Y298999D02*
X517300D01*
X488299Y298099D02*
X517300D01*
X488005Y297199D02*
X517300D01*
X487593Y296299D02*
X517300D01*
X487044Y295399D02*
X517300D01*
X486321Y294499D02*
X517300D01*
X485355Y293599D02*
X517300D01*
X483972Y292699D02*
X517300D01*
X481121Y291799D02*
X517300D01*
X330308Y290899D02*
X517300D01*
X331208Y289999D02*
X517300D01*
X332108Y289099D02*
X517300D01*
X333008Y288199D02*
X517300D01*
X333908Y287299D02*
X517300D01*
X334808Y286399D02*
X517300D01*
X335000Y285499D02*
X517300D01*
X335000Y284599D02*
X517300D01*
X335000Y283699D02*
X517300D01*
X335000Y282799D02*
X517300D01*
X335000Y281899D02*
X517300D01*
X335000Y280999D02*
X517300D01*
X335000Y280099D02*
X517300D01*
X335000Y279199D02*
X517300D01*
X335000Y278299D02*
X517300D01*
X335000Y277399D02*
X517300D01*
X335000Y276499D02*
X517300D01*
X335000Y275599D02*
X517300D01*
X495112Y274699D02*
X517300D01*
X497768Y273799D02*
X517300D01*
X498700Y272899D02*
X517300D01*
X499254Y271999D02*
X517300D01*
X499570Y271099D02*
X517300D01*
X499696Y270199D02*
X517300D01*
X499647Y269299D02*
X517300D01*
X499419Y268399D02*
X517300D01*
X498979Y267499D02*
X517300D01*
X498244Y266599D02*
X517300D01*
X496894Y265699D02*
X517300D01*
X335000Y264799D02*
X517300D01*
X497625Y263899D02*
X517300D01*
X498619Y262999D02*
X517300D01*
X499205Y262099D02*
X517300D01*
X499545Y261199D02*
X517300D01*
X499691Y260299D02*
X517300D01*
X499661Y259399D02*
X517300D01*
X499454Y258499D02*
X517300D01*
X499040Y257599D02*
X517300D01*
X498345Y256699D02*
X517300D01*
X497107Y255799D02*
X517300D01*
X335000Y254899D02*
X517300D01*
X497470Y253999D02*
X517300D01*
X498534Y253099D02*
X517300D01*
X499154Y252199D02*
X517300D01*
X499517Y251299D02*
X517300D01*
X499683Y250399D02*
X517300D01*
X499673Y249499D02*
X517300D01*
X499486Y248599D02*
X517300D01*
X499098Y247699D02*
X517300D01*
X498441Y246799D02*
X517300D01*
X497296Y245899D02*
X517300D01*
X335000Y244999D02*
X517300D01*
X335000Y244099D02*
X517300D01*
X335000Y243199D02*
X517300D01*
X335000Y242299D02*
X517300D01*
X335000Y241399D02*
X517300D01*
X335000Y240499D02*
X517300D01*
X335000Y239599D02*
X517300D01*
X335000Y238699D02*
X517300D01*
X335000Y237799D02*
X517300D01*
X335000Y236899D02*
X517300D01*
X335000Y235999D02*
X517300D01*
X335000Y235099D02*
X517300D01*
X335000Y234199D02*
X517300D01*
X334506Y233299D02*
X517300D01*
X333606Y232399D02*
X517300D01*
X332706Y231499D02*
X517300D01*
X331806Y230599D02*
X517300D01*
X330906Y229699D02*
X517300D01*
X330006Y228799D02*
X517300D01*
X482514Y227899D02*
X517300D01*
X484505Y226999D02*
X517300D01*
X485714Y226099D02*
X517300D01*
X486587Y225199D02*
X517300D01*
X487246Y224299D02*
X517300D01*
X487746Y223399D02*
X517300D01*
X488116Y222499D02*
X517300D01*
X488374Y221599D02*
X517300D01*
X488530Y220699D02*
X517300D01*
X488589Y219799D02*
X517300D01*
X488554Y218899D02*
X517300D01*
X488423Y217999D02*
X517300D01*
X488191Y217099D02*
X517300D01*
X487850Y216199D02*
X517300D01*
X487385Y215299D02*
X517300D01*
X486770Y214399D02*
X517300D01*
X485959Y213499D02*
X517300D01*
X484855Y212599D02*
X517300D01*
X483163Y211699D02*
X517300D01*
X270000Y210799D02*
X517300D01*
X439025Y209899D02*
X517300D01*
X441403Y208999D02*
X517300D01*
X505697Y208099D02*
X517300D01*
X507521Y207199D02*
X517300D01*
X508675Y206299D02*
X517300D01*
X509516Y205399D02*
X517300D01*
X510152Y204499D02*
X517300D01*
X510634Y203599D02*
X517300D01*
X510989Y202699D02*
X517300D01*
X511234Y201799D02*
X517300D01*
X511377Y200899D02*
X517300D01*
X511424Y199999D02*
X517300D01*
X511377Y199099D02*
X517300D01*
X511233Y198199D02*
X517300D01*
X510989Y197299D02*
X517300D01*
X510633Y196399D02*
X517300D01*
X510151Y195499D02*
X517300D01*
X509514Y194599D02*
X517300D01*
X508672Y193699D02*
X517300D01*
X507517Y192799D02*
X517300D01*
X505690Y191899D02*
X517300D01*
X440686Y190999D02*
X517300D01*
X270000Y190099D02*
X517300D01*
X441110Y189199D02*
X517300D01*
X483169Y188299D02*
X517300D01*
X484859Y187399D02*
X517300D01*
X485962Y186499D02*
X517300D01*
X486772Y185599D02*
X517300D01*
X487387Y184699D02*
X517300D01*
X487852Y183799D02*
X517300D01*
X488192Y182899D02*
X517300D01*
X488423Y181999D02*
X517300D01*
X488554Y181099D02*
X517300D01*
X488589Y180199D02*
X517300D01*
X488529Y179299D02*
X517300D01*
X488373Y178399D02*
X517300D01*
X488115Y177499D02*
X517300D01*
X487744Y176599D02*
X517300D01*
X487244Y175699D02*
X517300D01*
X486584Y174799D02*
X517300D01*
X485711Y173899D02*
X517300D01*
X484501Y172999D02*
X517300D01*
X482505Y172099D02*
X517300D01*
X270000Y171199D02*
X517300D01*
X270000Y170299D02*
X517300D01*
X270000Y169399D02*
X517300D01*
X270000Y168499D02*
X517300D01*
X270000Y167599D02*
X517300D01*
X270000Y166699D02*
X517300D01*
X364659Y165799D02*
X517300D01*
X366829Y164899D02*
X517300D01*
X367735Y163999D02*
X517300D01*
X368275Y163099D02*
X517300D01*
X368580Y162199D02*
X517300D01*
X368698Y161299D02*
X517300D01*
X368640Y160399D02*
X517300D01*
X368402Y159499D02*
X517300D01*
X367950Y158599D02*
X517300D01*
X367196Y157699D02*
X517300D01*
X365789Y156799D02*
X517300D01*
X270000Y155899D02*
X517300D01*
X270000Y154999D02*
X517300D01*
X270000Y154099D02*
X517300D01*
X502888Y153199D02*
X517300D01*
X505594Y152299D02*
X517300D01*
X507254Y151399D02*
X517300D01*
X508504Y150499D02*
X517300D01*
X509509Y149599D02*
X517300D01*
X510338Y148699D02*
X517300D01*
X511033Y147799D02*
X517300D01*
X511617Y146899D02*
X517300D01*
X512106Y145999D02*
X517300D01*
X512512Y145099D02*
X517300D01*
X512842Y144199D02*
X517300D01*
X513102Y143299D02*
X517300D01*
X513296Y142399D02*
X517300D01*
X447444Y311599D02*
X501045D01*
X441941Y191899D02*
X499979D01*
X442325Y208099D02*
X499972D01*
X335969Y366499D02*
X499487D01*
X444935Y327799D02*
X499234D01*
X481255Y312499D02*
X498650D01*
X482446Y192799D02*
X498152D01*
X482454Y207199D02*
X498148D01*
X483202Y326899D02*
X497717D01*
X483777Y313399D02*
X497339D01*
X270000Y153199D02*
X497112D01*
X484259Y193699D02*
X496997D01*
X484263Y206299D02*
X496994D01*
X484675Y325999D02*
X496686D01*
X485034Y314299D02*
X496410D01*
X485354Y194599D02*
X496156D01*
X485357Y205399D02*
X496153D01*
X485643Y325099D02*
X495922D01*
X485898Y315199D02*
X495712D01*
X486130Y195499D02*
X495519D01*
X486132Y204499D02*
X495517D01*
X486342Y324199D02*
X495341D01*
X486529Y316099D02*
X495182D01*
X335765Y367399D02*
X495126D01*
X486699Y196399D02*
X495036D01*
X486700Y203599D02*
X495035D01*
X486853Y323299D02*
X494904D01*
X485112Y274699D02*
X494888D01*
X486988Y316999D02*
X494786D01*
X487110Y197299D02*
X494681D01*
X487111Y202699D02*
X494680D01*
X487217Y322399D02*
X494587D01*
X487309Y317899D02*
X494506D01*
X487389Y198199D02*
X494436D01*
X487390Y201799D02*
X494435D01*
X270000Y152299D02*
X494406D01*
X487456Y321499D02*
X494377D01*
X487510Y318799D02*
X494329D01*
X487552Y199099D02*
X494292D01*
X487552Y200899D02*
X494292D01*
X487582Y320599D02*
X494266D01*
X487600Y319699D02*
X494250D01*
X487606Y199999D02*
X494245D01*
X335356Y368299D02*
X493245D01*
X486894Y265699D02*
X493106D01*
X487107Y255799D02*
X492893D01*
X270000Y151399D02*
X492746D01*
X487296Y245899D02*
X492704D01*
X487470Y253999D02*
X492530D01*
X487625Y263899D02*
X492375D01*
X487768Y273799D02*
X492232D01*
X334669Y369199D02*
X491883D01*
X488244Y266599D02*
X491756D01*
X488345Y256699D02*
X491655D01*
X488441Y246799D02*
X491559D01*
X270000Y150499D02*
X491496D01*
X488534Y253099D02*
X491466D01*
X488619Y262999D02*
X491381D01*
X488700Y272899D02*
X491300D01*
X488979Y267499D02*
X491021D01*
X489040Y257599D02*
X490960D01*
X489098Y247699D02*
X490902D01*
X489154Y252199D02*
X490846D01*
X333448Y370099D02*
X490807D01*
X489205Y262099D02*
X490795D01*
X489254Y271999D02*
X490746D01*
X489419Y268399D02*
X490581D01*
X489454Y258499D02*
X490546D01*
X489486Y248599D02*
X490514D01*
X270000Y149599D02*
X490491D01*
X489517Y251299D02*
X490483D01*
X489545Y261199D02*
X490455D01*
X489570Y271099D02*
X490430D01*
X489647Y269299D02*
X490353D01*
X489661Y259399D02*
X490339D01*
X489673Y249499D02*
X490327D01*
X489683Y250399D02*
X490317D01*
X489691Y260299D02*
X490309D01*
X489696Y270199D02*
X490304D01*
X270000Y370999D02*
X489924D01*
X270000Y148699D02*
X489662D01*
X270000Y371899D02*
X489187D01*
X270000Y147799D02*
X488967D01*
X270000Y372799D02*
X488568D01*
X270000Y146899D02*
X488383D01*
X270000Y373699D02*
X488048D01*
X270000Y145999D02*
X487894D01*
X270000Y374599D02*
X487616D01*
X270000Y145099D02*
X487488D01*
X270000Y375499D02*
X487261D01*
X270000Y144199D02*
X487158D01*
X270000Y376399D02*
X486978D01*
X270000Y143299D02*
X486898D01*
X270000Y377299D02*
X486762D01*
X270000Y142399D02*
X486704D01*
X270000Y378199D02*
X486610D01*
X335000Y274699D02*
X484888D01*
X335000Y265699D02*
X483106D01*
X335000Y255799D02*
X482893D01*
X335000Y245899D02*
X482704D01*
X335000Y253999D02*
X482530D01*
X335000Y263899D02*
X482375D01*
X335000Y273799D02*
X482232D01*
X335000Y266599D02*
X481756D01*
X335000Y256699D02*
X481655D01*
X335000Y246799D02*
X481559D01*
X335000Y253099D02*
X481466D01*
X335000Y262999D02*
X481381D01*
X335000Y272899D02*
X481300D01*
X335000Y267499D02*
X481021D01*
X335000Y257599D02*
X480960D01*
X335000Y247699D02*
X480902D01*
X335000Y252199D02*
X480846D01*
X335000Y262099D02*
X480795D01*
X335000Y271999D02*
X480746D01*
X335000Y268399D02*
X480581D01*
X335000Y258499D02*
X480546D01*
X335000Y248599D02*
X480514D01*
X335000Y251299D02*
X480483D01*
X335000Y261199D02*
X480455D01*
X335000Y271099D02*
X480430D01*
X335000Y269299D02*
X480353D01*
X335000Y259399D02*
X480339D01*
X335000Y249499D02*
X480327D01*
X335000Y250399D02*
X480317D01*
X335000Y260299D02*
X480309D01*
X335000Y270199D02*
X480304D01*
X446321Y308899D02*
X479677D01*
X329408Y291799D02*
X478879D01*
X447428Y312499D02*
X478745D01*
X447424Y331399D02*
X477737D01*
X442643Y192799D02*
X477554D01*
X442874Y207199D02*
X477546D01*
X270000Y172099D02*
X477495D01*
X465343Y227899D02*
X477486D01*
X270000Y211699D02*
X476837D01*
X442161Y188299D02*
X476831D01*
X270000Y326899D02*
X476798D01*
X468769Y347599D02*
X476660D01*
X447234Y313399D02*
X476223D01*
X445281Y307999D02*
X476160D01*
X328508Y292699D02*
X476028D01*
X443061Y193699D02*
X475741D01*
X443186Y206299D02*
X475737D01*
X447446Y332299D02*
X475615D01*
X270000Y172999D02*
X475499D01*
X466514Y226999D02*
X475495D01*
X445169Y325999D02*
X475325D01*
X270000Y212599D02*
X475145D01*
X442776Y187399D02*
X475141D01*
X469375Y346699D02*
X475041D01*
X446837Y314299D02*
X474966D01*
X270000Y307099D02*
X474731D01*
X443272Y194599D02*
X474646D01*
X327608Y293599D02*
X474645D01*
X443309Y205399D02*
X474643D01*
X447293Y333199D02*
X474369D01*
X446260Y325099D02*
X474357D01*
X270000Y173899D02*
X474289D01*
X467181Y226099D02*
X474286D01*
X446168Y315199D02*
X474102D01*
X270000Y213499D02*
X474041D01*
X443134Y186499D02*
X474038D01*
X469729Y345799D02*
X473966D01*
X443304Y195499D02*
X473870D01*
X443257Y204499D02*
X473868D01*
X270000Y306199D02*
X473742D01*
X326708Y294499D02*
X473679D01*
X446893Y324199D02*
X473658D01*
X446946Y334099D02*
X473475D01*
X444993Y316099D02*
X473471D01*
X270000Y174799D02*
X473416D01*
X467577Y225199D02*
X473413D01*
X443162Y196399D02*
X473301D01*
X443025Y203599D02*
X473300D01*
X270000Y214399D02*
X473230D01*
X443297Y185599D02*
X473228D01*
X469886Y344899D02*
X473173D01*
X447265Y323299D02*
X473147D01*
X368401Y316999D02*
X473012D01*
X270000Y305299D02*
X473004D01*
X325808Y295399D02*
X472956D01*
X442826Y197299D02*
X472890D01*
X442581Y202699D02*
X472889D01*
X446347Y334999D02*
X472801D01*
X447438Y322399D02*
X472783D01*
X270000Y175699D02*
X472756D01*
X467770Y224299D02*
X472754D01*
X445117Y317899D02*
X472691D01*
X270000Y215299D02*
X472615D01*
X443284Y184699D02*
X472613D01*
X442246Y198199D02*
X472611D01*
X441839Y201799D02*
X472610D01*
X469869Y343999D02*
X472572D01*
X447435Y321499D02*
X472544D01*
X446233Y318799D02*
X472490D01*
X441262Y199099D02*
X472448D01*
X440468Y200899D02*
X472448D01*
X270000Y304399D02*
X472443D01*
X447256Y320599D02*
X472418D01*
X324908Y296299D02*
X472407D01*
X446876Y319699D02*
X472400D01*
X270000Y199999D02*
X472394D01*
X445329Y335899D02*
X472290D01*
X270000Y176599D02*
X472256D01*
X467785Y223399D02*
X472254D01*
X270000Y216199D02*
X472150D01*
X443094Y183799D02*
X472148D01*
X469674Y343099D02*
X472118D01*
X270000Y303499D02*
X472022D01*
X324008Y297199D02*
X471995D01*
X270000Y336799D02*
X471910D01*
X270000Y177499D02*
X471885D01*
X467625Y222499D02*
X471884D01*
X270000Y217099D02*
X471809D01*
X442701Y182899D02*
X471808D01*
X469275Y342199D02*
X471786D01*
X270000Y302599D02*
X471719D01*
X323108Y298099D02*
X471701D01*
X270000Y337699D02*
X471643D01*
X270000Y178399D02*
X471627D01*
X467269Y221599D02*
X471626D01*
X319206Y217999D02*
X471577D01*
X442038Y181999D02*
X471577D01*
X468604Y341299D02*
X471563D01*
X319508Y301699D02*
X471522D01*
X322208Y298999D02*
X471512D01*
X270000Y338599D02*
X471479D01*
X270000Y179299D02*
X471471D01*
X466659Y220699D02*
X471470D01*
X320106Y218899D02*
X471446D01*
X440878Y181099D02*
X471446D01*
X467422Y340399D02*
X471440D01*
X320408Y300799D02*
X471424D01*
X321308Y299899D02*
X471420D01*
X270000Y339499D02*
X471412D01*
X270000Y180199D02*
X471411D01*
X465616Y219799D02*
X471411D01*
X270000Y340399D02*
X462978D01*
X345179Y348499D02*
X462666D01*
X342529Y341299D02*
X461797D01*
X345663Y347599D02*
X461631D01*
X344281Y342199D02*
X461125D01*
X345926Y346699D02*
X461025D01*
X329106Y227899D02*
X460857D01*
X345126Y343099D02*
X460727D01*
X346005Y345799D02*
X460672D01*
X321006Y219799D02*
X460584D01*
X345631Y343999D02*
X460531D01*
X345911Y344899D02*
X460514D01*
X328206Y226999D02*
X459686D01*
X321906Y220699D02*
X459541D01*
X327306Y226099D02*
X459018D01*
X322806Y221599D02*
X458931D01*
X326406Y225199D02*
X458623D01*
X323706Y222499D02*
X458575D01*
X325506Y224299D02*
X458430D01*
X324606Y223399D02*
X458414D01*
X270000Y327799D02*
X440581D01*
X368640Y316099D02*
X440523D01*
X367948Y317899D02*
X440400D01*
X270000Y325999D02*
X440347D01*
X270000Y307999D02*
X440235D01*
X270000Y335899D02*
X440188D01*
X270000Y328699D02*
X439378D01*
X368698Y315199D02*
X439348D01*
X367192Y318799D02*
X439284D01*
X270000Y325099D02*
X439256D01*
X270000Y308899D02*
X439195D01*
X270000Y334999D02*
X439169D01*
X270000Y329599D02*
X438697D01*
X368581Y314299D02*
X438679D01*
X365779Y319699D02*
X438640D01*
X270000Y324199D02*
X438623D01*
X270000Y309799D02*
X438587D01*
X270000Y334099D02*
X438571D01*
X270000Y330499D02*
X438292D01*
X368276Y313399D02*
X438283D01*
X331701Y320599D02*
X438261D01*
X270000Y323299D02*
X438252D01*
X364685Y310699D02*
X438232D01*
X270000Y333199D02*
X438223D01*
X270000Y209899D02*
X438200D01*
X270000Y331399D02*
X438092D01*
X367737Y312499D02*
X438089D01*
X270000Y321499D02*
X438081D01*
X270000Y322399D02*
X438078D01*
X366834Y311599D02*
X438072D01*
X270000Y332299D02*
X438070D01*
X270000Y200899D02*
X436757D01*
X270000Y190999D02*
X436540D01*
X270000Y181099D02*
X436347D01*
X270000Y189199D02*
X436116D01*
X270000Y199099D02*
X435963D01*
X270000Y208999D02*
X435822D01*
X270000Y201799D02*
X435387D01*
X270000Y191899D02*
X435284D01*
X270000Y181999D02*
X435187D01*
X270000Y188299D02*
X435064D01*
X270000Y198199D02*
X434980D01*
X270000Y208099D02*
X434900D01*
X270000Y202699D02*
X434644D01*
X270000Y192799D02*
X434582D01*
X270000Y182899D02*
X434524D01*
X270000Y187399D02*
X434450D01*
X270000Y197299D02*
X434399D01*
X270000Y207199D02*
X434351D01*
X270000Y203599D02*
X434200D01*
X270000Y193699D02*
X434165D01*
X270000Y183799D02*
X434132D01*
X270000Y186499D02*
X434091D01*
X270000Y196399D02*
X434064D01*
X270000Y206299D02*
X434039D01*
X270000Y204499D02*
X433968D01*
X270000Y194599D02*
X433953D01*
X270000Y184699D02*
X433941D01*
X270000Y185599D02*
X433928D01*
X270000Y195499D02*
X433921D01*
X270000Y205399D02*
X433916D01*
X354659Y165799D02*
X363341D01*
X354685Y310699D02*
X363315D01*
X355779Y319699D02*
X362221D01*
X355789Y156799D02*
X362211D01*
X356829Y164899D02*
X361171D01*
X356834Y311599D02*
X361166D01*
X357192Y318799D02*
X360808D01*
X357196Y157699D02*
X360804D01*
X357735Y163999D02*
X360265D01*
X357737Y312499D02*
X360263D01*
X357948Y317899D02*
X360052D01*
X357950Y158599D02*
X360050D01*
X358275Y163099D02*
X359725D01*
X358276Y313399D02*
X359724D01*
X358401Y316999D02*
X359599D01*
X358402Y159499D02*
X359598D01*
X358580Y162199D02*
X359420D01*
X358581Y314299D02*
X359419D01*
X358640Y316099D02*
X359360D01*
X358640Y160399D02*
X359360D01*
X358698Y161299D02*
X359302D01*
X358698Y315199D02*
X359302D01*
X270000Y165799D02*
X353341D01*
X270000Y310699D02*
X353315D01*
X334094Y319699D02*
X352221D01*
X270000Y156799D02*
X352211D01*
X270000Y164899D02*
X351171D01*
X333165Y311599D02*
X351166D01*
X335017Y318799D02*
X350808D01*
X270000Y157699D02*
X350804D01*
X270000Y163999D02*
X350265D01*
X334533Y312499D02*
X350263D01*
X335567Y317899D02*
X350052D01*
X270000Y158599D02*
X350050D01*
X270000Y163099D02*
X349725D01*
X335275Y313399D02*
X349724D01*
X335879Y316999D02*
X349599D01*
X270000Y159499D02*
X349598D01*
X270000Y162199D02*
X349420D01*
X335719Y314299D02*
X349419D01*
X336002Y316099D02*
X349360D01*
X270000Y160399D02*
X349360D01*
X270000Y161299D02*
X349302D01*
X335951Y315199D02*
X349302D01*
X270000Y341299D02*
X340082D01*
X270000Y350299D02*
X339829D01*
X270000Y342199D02*
X338330D01*
X270000Y349399D02*
X338239D01*
X270000Y343099D02*
X337485D01*
X270000Y348499D02*
X337432D01*
X270000Y343999D02*
X336980D01*
X270000Y347599D02*
X336948D01*
X270000Y344899D02*
X336700D01*
X270000Y346699D02*
X336685D01*
X270000Y345799D02*
X336606D01*
X270000Y320599D02*
X330910D01*
X270000Y311599D02*
X329446D01*
X270000Y370099D02*
X329163D01*
X270000Y361999D02*
X328708D01*
X270000Y319699D02*
X328517D01*
X270000Y312499D02*
X328078D01*
X270000Y369199D02*
X327943D01*
X270000Y362899D02*
X327701D01*
X270000Y318799D02*
X327594D01*
X270000Y313399D02*
X327336D01*
X270000Y368299D02*
X327255D01*
X270000Y363799D02*
X327109D01*
X270000Y317899D02*
X327045D01*
X270000Y314299D02*
X326892D01*
X270000Y367399D02*
X326846D01*
X270000Y364699D02*
X326766D01*
X270000Y316999D02*
X326732D01*
X270000Y315199D02*
X326661D01*
X270000Y366499D02*
X326642D01*
X270000Y365599D02*
X326616D01*
X270000Y316099D02*
X326609D01*
G54D55*
X480000Y320000D03*
Y200000D03*
G54D56*
Y339685D03*
X502835Y320000D03*
X480000Y300315D03*
Y219685D03*
X502835Y200000D03*
X480000Y180315D03*
G54D57*
X155000Y260000D03*
X145000Y250000D03*
X165000D03*
Y270000D03*
X145000D03*
G54D58*
X304053Y245000D03*
X309959Y250000D03*
Y255000D03*
X304053Y260000D03*
X309959Y265000D03*
Y270000D03*
X304053Y275000D03*
G54D59*
X313896Y285827D03*
X309959Y235315D03*
G74*
X0Y0D02*
M02*
